<?xml version="1.0" encoding="utf-8"?>
<!-- Svg Vector Icons : http://www.onlinewebfonts.com/icon -->
<!DOCTYPE svg PUBLIC "-//W3C//DTD SVG 1.1//EN" "http://www.w3.org/Graphics/SVG/1.1/DTD/svg11.dtd">
<svg version="1.1" xmlns="http://www.w3.org/2000/svg" xmlns:xlink="http://www.w3.org/1999/xlink" x="0px" y="0px" viewBox="0 0 256 256" enable-background="new 0 0 256 256" xml:space="preserve">
<metadata> Svg Vector Icons : http://www.onlinewebfonts.com/icon </metadata>
<g><g><g><path fill="currentColor" d="M104.9,39.9c-17.7,0.6-34,3.1-45.8,7.1c-16.8,5.5-26.8,14.3-29.9,26.3c-1,3.9-1,11.2,0,15.3c4.4,18.3,23.8,30.7,54.9,35.2c11.3,1.7,15.7,1.9,33.3,1.9c19.2,0,25.8-0.5,38.3-2.8c30-5.5,47.1-18.2,50-37.3c1.6-10.4-2-20.4-10.2-27.9C181.2,44.7,148.5,38.3,104.9,39.9z M139.6,48.1c29.4,3.1,50.5,11.5,54.8,21.7c0.8,2,0.9,4.4,0.1,6.9c-0.7,2.6-6.1,7.9-10.2,10.2c-26.5,14.7-85.2,17.4-121.2,5.5c-14.3-4.7-22.5-10.8-23.6-17.6C37.8,64,56.9,53.5,86.2,49.2c5.2-0.7,10.2-1.2,19.9-2C111,46.8,133.2,47.4,139.6,48.1z"/><path fill="currentColor" d="M24.2,103.7c-6.7,4.7-11.6,11.3-13.4,18.1c-1.2,4.5-1.1,12.2,0.2,16.9c6.7,23.7,36.9,36.2,87.5,36.3c32.8,0,56.3-5,72.3-15.5c3.6-2.4,9.7-8.6,11.6-11.9c3.2-5.5,5.1-12,5.1-18.1v-2.7l-1.5,0.2c-0.8,0.2-3.7,0.5-6.4,0.8l-4.9,0.6l-2.5,2.4c-10.4,10-35,16.7-64.7,17.7c-43.1,1.4-79.7-8.1-86-22.5c-2.6-5.9,1.3-12.4,10.7-17.6l3.1-1.7l-3.8-2.7c-2.1-1.5-3.9-2.7-4-2.7C27.5,101.5,26,102.5,24.2,103.7z"/><path fill="currentColor" d="M194.6,136.1c-0.9,1.8-1.7,3.5-1.8,3.7c-0.1,0.2,0.6,0.6,1.6,0.7c4.5,0.8,15.6,3.7,19.5,5.2c20.1,7.4,26.3,17.4,16.8,26.8c-14.2,14-59.7,21.2-100.9,16c-7-0.9-17.8-3-23.1-4.6c-2.3-0.6-6.1-1.3-9.2-1.6c-7.3-0.6-16.9-2.4-23.1-4.3c-2.9-0.9-5.4-1.5-5.5-1.4c-0.4,0.4,1.5,6.3,3,9.3c6.8,14.1,24.2,23.8,50.6,28c20.8,3.4,52.4,3.1,72.5-0.5c6.3-1.2,14.7-3.4,19.4-5.1c9.5-3.6,15.6-7.3,21.5-13.3c3.5-3.6,4.6-4.9,6.4-8.6c2.8-5.8,3.7-9.2,3.7-15.2c0-18.1-12.8-29.9-39.5-36.5c-3-0.7-6.5-1.4-7.9-1.6l-2.5-0.3L194.6,136.1z"/></g></g></g>
</svg>