<?xml version="1.0" encoding="utf-8"?>
<!-- Svg Vector Icons : http://www.onlinewebfonts.com/icon -->
<!DOCTYPE svg PUBLIC "-//W3C//DTD SVG 1.1//EN" "http://www.w3.org/Graphics/SVG/1.1/DTD/svg11.dtd">
<svg version="1.1" xmlns="http://www.w3.org/2000/svg" xmlns:xlink="http://www.w3.org/1999/xlink" x="0px" y="0px" viewBox="0 0 256 256" enable-background="new 0 0 256 256" xml:space="preserve">
<metadata> Svg Vector Icons : http://www.onlinewebfonts.com/icon </metadata>
<g><g><g><path fill="currentColor" d="M134.6,10.2c-1,0.1-4,0.5-6.7,0.9C79.3,18.4,31,60.9,15.1,110.4c-3.9,12-5.1,20-5.1,32.6c0,10.4,0.6,15,2.8,23.3c7.1,27,26.4,49.2,55.6,63.7c11.9,5.9,23.5,9.9,37.1,12.6c12.6,2.5,19.2,3.2,32.3,3.2c13.1,0,18.5-0.6,28.8-3.2c51.5-13.2,83.7-64.9,79-126.7c-2.5-32.1-14-59.3-33.2-78.4c-14.4-14.4-32.5-23.4-53.5-26.5C154.1,10.4,138.3,9.8,134.6,10.2z M133.3,31.2c38.2,4.2,76.3,30.4,92.6,63.8c5.5,11.3,7.9,20.7,8.4,32.4c1.3,36.4-16.9,67.6-50.5,86.4c-19.9,11.2-47.1,17.2-68.9,15.4c-12.3-1.1-22-3.6-32.1-8.6c-28.6-14-47.4-43.3-51.7-80.8c-1-8.6-0.7-23,0.7-30.9c3.6-20.8,12.9-38.6,27.3-52.7C69,46.8,79.9,40,92.6,35.6C104.9,31.4,120,29.7,133.3,31.2z"/><path fill="currentColor" d="M155.1,73.8c-3.2,0.7-6.3,2.5-8.3,4.8c-6.9,7.8-6.6,25.6,0.5,32.8c2.8,2.9,5.4,4,9.9,4.2c3,0.1,4.5,0,7-0.8c6.7-2,14.2-8.4,17.4-15c1.5-3,1.8-4.1,1.9-7.3c0.2-3.5,0.1-4.2-1.1-6.7c-2.4-5.2-8.5-9.7-15.5-11.3C162.6,73.3,158,73.1,155.1,73.8z"/><path fill="currentColor" d="M89.7,78.6c-5.2,1.8-11.2,6.9-15.4,13.1c-8,11.8-7.4,24.6,1.5,28.4c4.5,1.9,12,1.6,19.8-0.9c7.4-2.4,13.8-7.2,16.6-12.5c5-9.5-0.8-24.7-10.7-28.1C97.9,77.5,93,77.5,89.7,78.6z"/><path fill="currentColor" d="M114.8,139.7c-16.3,1.4-32.2,8.6-42.2,19.1c-4.2,4.3-6.7,8-9.3,13.1c-1.9,3.8-4.2,10.6-4.2,12.3c0,0.6,1.1,2.7,2.4,4.7l2.4,3.6l1.3-3.3c6.1-15.6,21-27.1,39.2-30.3c5.5-1,15.6-1,21,0c13.4,2.3,25.1,8.3,35.3,18.1c3.9,3.7,9.5,10.8,11.7,14.8c0.8,1.5,1.6,2.3,1.9,2.1c1.2-0.5,20.9-13.6,20.9-13.9c0-0.9-6.6-9-10.8-13.4c-15.2-15.8-33.9-24.9-55.4-26.9C123.4,139.1,120.8,139.1,114.8,139.7z"/></g></g></g>
</svg>